<?xml version="1.0" standalone="no"?>
<!DOCTYPE svg PUBLIC "-//W3C//DTD SVG 20010904//EN"
 "http://www.w3.org/TR/2001/REC-SVG-20010904/DTD/svg10.dtd">
<svg version="1.0" xmlns="http://www.w3.org/2000/svg"
 width="512.000000pt" height="512.000000pt" viewBox="0 0 512.000000 512.000000"
 preserveAspectRatio="xMidYMid meet">

<g transform="translate(0.000000,512.000000) scale(0.100000,-0.100000)"
fill="#000000" stroke="none">
<path d="M3709 4686 c-43 -15 -77 -40 -115 -85 -34 -41 -262 -501 -350 -706
-78 -182 -125 -258 -157 -253 -21 3 -22 8 -27 143 -6 162 -17 193 -87 255 -52
46 -114 71 -272 111 -187 48 -215 42 -295 -65 -142 -191 -251 -343 -328 -461
-112 -169 -163 -223 -272 -288 -119 -70 -142 -100 -166 -218 -11 -52 -20 -133
-20 -180 0 -112 31 -180 99 -216 48 -25 155 -32 192 -13 16 9 24 5 51 -26 93
-105 260 -97 363 18 21 22 51 70 69 107 27 58 31 76 31 151 0 62 -5 97 -19
127 l-18 41 28 53 c16 29 49 74 73 99 l43 45 17 -24 c9 -14 33 -65 53 -114 20
-50 51 -113 68 -141 29 -46 31 -52 15 -61 -53 -31 -128 -102 -163 -154 -45
-68 -66 -119 -82 -202 -14 -71 -54 -120 -125 -154 -74 -35 -95 -59 -95 -110 0
-32 6 -47 28 -68 38 -36 85 -35 165 3 116 55 191 151 222 285 9 35 20 76 25
90 17 44 100 123 156 149 110 51 154 104 154 188 0 90 -86 218 -147 218 -17 0
-27 7 -30 21 -3 11 -23 55 -43 97 -74 153 -191 208 -312 146 -52 -27 -126
-103 -173 -179 -78 -124 -92 -201 -55 -284 33 -71 20 -141 -34 -196 -36 -36
-58 -32 -79 15 -37 79 -131 104 -227 61 l-45 -20 -3 51 c-2 29 2 82 8 119 l12
68 76 42 c114 62 204 159 353 379 178 264 296 420 317 420 27 0 199 -48 231
-65 16 -8 31 -22 35 -30 3 -9 6 -65 6 -124 0 -120 15 -184 54 -235 36 -48 103
-78 175 -78 134 0 218 91 329 357 67 159 297 631 328 673 29 38 64 42 94 12
20 -20 21 -31 18 -178 -3 -153 -2 -158 24 -212 15 -30 68 -104 119 -165 164
-197 210 -271 228 -370 13 -69 32 -100 84 -134 34 -23 37 -28 37 -74 0 -63 27
-109 86 -143 45 -26 165 -53 242 -54 23 0 42 -4 42 -10 0 -5 -21 -24 -47 -41
-74 -50 -301 -238 -318 -262 -8 -12 -15 -38 -15 -59 0 -33 11 -50 103 -151
141 -157 137 -145 93 -253 -46 -116 -60 -183 -53 -262 13 -132 93 -243 221
-306 40 -20 79 -36 87 -37 39 -2 -33 -18 -84 -18 -31 -1 -103 -8 -159 -16 -57
-9 -136 -16 -178 -17 -69 -2 -87 3 -215 52 -133 52 -145 54 -235 55 -84 0
-102 -3 -155 -29 -128 -61 -114 -59 -196 -20 -115 55 -196 46 -253 -29 -26
-34 -105 -219 -137 -322 -26 -84 -24 -158 6 -223 l24 -53 -25 -9 c-14 -6 -67
-19 -117 -30 -158 -35 -231 -83 -244 -164 -7 -47 11 -95 63 -166 46 -63 54
-96 31 -138 l-13 -23 -21 23 c-11 13 -44 61 -73 108 -30 47 -68 103 -86 125
-27 35 -32 50 -36 110 -2 40 -12 87 -23 109 -63 131 -271 333 -414 403 -43 21
-71 28 -118 28 -67 0 -98 -16 -137 -69 -27 -36 -27 -117 1 -208 12 -38 17 -65
12 -62 -5 3 -27 41 -49 84 -86 171 -166 203 -341 135 l-90 -35 -70 15 c-140
30 -201 11 -271 -80 -36 -47 -57 -63 -126 -96 -88 -42 -158 -105 -296 -262
-88 -100 -103 -108 -192 -97 -38 5 -94 9 -124 10 -54 0 -56 1 -115 63 -33 34
-77 76 -98 92 l-38 30 31 70 c38 83 142 273 182 333 22 32 35 42 56 42 15 0
99 -34 187 -76 219 -104 234 -109 278 -91 28 12 44 31 81 100 72 132 97 202
103 287 5 63 10 80 32 104 36 40 246 196 332 247 80 48 101 73 102 125 1 29
-5 42 -31 65 -41 37 -81 37 -141 3 -46 -27 -46 -27 -24 -3 90 100 100 238 33
454 -41 131 -46 185 -26 273 35 155 12 249 -73 303 -60 39 -106 50 -199 50
-85 1 -147 -17 -199 -57 -71 -54 -88 -130 -66 -288 19 -129 20 -122 -90 -366
-91 -202 -109 -254 -109 -317 -1 -58 21 -104 65 -137 27 -20 40 -21 245 -21
193 1 223 3 275 21 31 12 56 20 55 19 -2 -1 -66 -50 -144 -108 -191 -143 -224
-189 -234 -322 -6 -78 -50 -205 -71 -205 -5 0 -61 25 -126 55 -194 92 -267
104 -358 61 -66 -31 -101 -70 -170 -191 -137 -237 -195 -368 -195 -440 0 -51
46 -130 98 -169 26 -19 80 -68 119 -110 53 -55 83 -78 110 -85 42 -10 251 -25
325 -24 91 3 175 59 296 200 110 127 141 153 225 192 77 36 122 72 169 139
l16 23 85 -16 c99 -18 133 -15 231 26 37 16 70 29 72 29 1 0 22 -37 46 -82 35
-69 62 -102 158 -196 190 -187 261 -231 330 -202 38 16 60 51 60 95 0 19 -23
97 -51 173 -72 195 -99 272 -92 272 12 0 131 -101 178 -151 101 -107 109 -123
116 -216 5 -76 8 -87 43 -135 21 -29 71 -102 111 -163 81 -122 132 -176 187
-200 152 -63 306 83 296 281 -3 62 -8 78 -40 127 -32 48 -35 56 -20 61 9 2 52
12 95 22 107 25 184 68 225 128 42 63 42 106 1 188 -22 45 -30 70 -26 93 5 32
85 243 97 258 4 4 33 -5 66 -20 92 -42 157 -39 267 15 58 27 103 42 128 42 23
0 94 -21 170 -50 188 -72 231 -77 425 -52 88 12 202 24 254 27 178 11 251 35
308 99 56 64 52 151 -9 220 -34 39 -80 60 -169 76 -69 12 -145 46 -172 77 -26
28 -48 88 -48 129 0 20 15 75 34 123 41 102 56 155 56 196 0 48 -52 144 -123
225 l-65 74 107 83 c172 134 193 154 214 202 58 131 -7 256 -147 280 -33 6
-86 13 -116 16 -87 10 -92 13 -85 45 15 70 -31 156 -100 184 -26 11 -33 21
-38 52 -15 90 -109 238 -272 429 -87 102 -99 130 -90 214 19 177 1 267 -68
340 -68 72 -186 100 -278 67z m-2516 -1562 c21 -7 22 -40 1 -114 -26 -95 -20
-179 24 -331 68 -234 66 -270 -16 -311 -41 -20 -65 -23 -189 -26 -84 -2 -143
0 -143 5 0 5 38 96 85 201 113 255 121 286 105 427 -7 61 -11 119 -9 130 6 31
69 39 142 19z"/>
<path d="M1873 2422 c-34 -5 -73 -58 -73 -99 0 -69 86 -117 151 -83 49 27 61
117 20 154 -22 20 -68 33 -98 28z"/>
</g>
</svg>
