<?xml version="1.0" standalone="no"?>
<!DOCTYPE svg PUBLIC "-//W3C//DTD SVG 20010904//EN"
 "http://www.w3.org/TR/2001/REC-SVG-20010904/DTD/svg10.dtd">
<svg version="1.0" xmlns="http://www.w3.org/2000/svg"
 width="512.000000pt" height="512.000000pt" viewBox="0 0 512.000000 512.000000"
 preserveAspectRatio="xMidYMid meet">

<g transform="translate(0.000000,512.000000) scale(0.100000,-0.100000)"
fill="#000000" stroke="none">
<path d="M2410 4364 c-14 -3 -59 -12 -100 -20 -81 -17 -1962 -718 -2045 -762
-68 -36 -163 -134 -202 -208 -105 -197 -74 -422 80 -590 76 -83 138 -113 559
-270 l318 -119 0 -470 c0 -288 5 -487 11 -515 67 -293 443 -523 1009 -619 268
-46 646 -52 914 -16 561 75 950 270 1083 542 l38 78 6 315 c4 173 8 398 8 500
l1 185 283 104 c155 57 288 106 295 109 9 3 12 -48 12 -238 l0 -241 -30 -25
c-16 -14 -47 -60 -67 -102 l-38 -76 0 -161 c0 -148 2 -164 24 -208 42 -85 109
-119 241 -119 132 0 199 33 241 119 22 45 24 59 24 208 0 158 0 161 -31 225
-17 36 -47 83 -67 104 l-37 39 0 307 0 306 31 30 c110 103 170 296 139 449
-29 143 -137 294 -255 357 -74 39 -1950 735 -2047 759 -81 20 -334 35 -398 23z
m258 -455 c44 -11 1609 -588 1752 -646 239 -97 216 -170 -92 -292 -186 -74
-1570 -586 -1628 -603 -81 -23 -217 -24 -291 -2 -43 13 -1500 555 -1709 635
-115 45 -176 101 -163 150 8 31 76 82 140 106 800 302 1683 630 1733 644 75
21 190 24 258 8z m-847 -1814 c511 -191 499 -188 729 -189 231 -1 225 -2 727
185 208 78 386 144 396 146 16 5 17 -17 17 -356 0 -284 -3 -369 -14 -394 -52
-127 -400 -266 -796 -319 -125 -17 -536 -16 -660 1 -293 40 -533 115 -691 216
-116 75 -109 44 -109 479 0 207 3 376 6 376 4 0 182 -65 395 -145z"/>
</g>
</svg>
