<svg xmlns="http://www.w3.org/2000/svg" version="1.0" preserveAspectRatio="xMidYMid meet" viewBox="16.14 14 191.86 192.91">

<g transform="translate(0.000000,217.000000) scale(0.100000,-0.100000)" fill="#000000" stroke="none">
<path d="M1065 1993 c-21 -127 -16 -117 -69 -127 -45 -9 -49 -8 -67 15 -10 13 -27 43 -39 67 -23 45 -32 48 -93 31 -28 -8 -37 -14 -33 -27 2 -9 7 -47 11 -83 l6 -67 -45 -25 -45 -25 -23 25 c-13 14 -40 38 -60 55 l-38 29 -37 -27 c-21 -16 -40 -30 -43 -32 -3 -2 13 -37 35 -78 l40 -74 -37 -37 -37 -36 -63 27 c-35 16 -68 30 -75 33 -6 2 -25 -16 -42 -40 l-31 -45 61 -59 60 -58 -21 -48 -22 -49 -79 7 c-77 7 -79 7 -88 -17 -5 -13 -11 -37 -13 -53 -3 -27 1 -30 70 -59 76 -31 76 -31 64 -100 -7 -39 -8 -40 -77 -61 l-70 -21 -3 -43 c-2 -24 1 -48 6 -53 6 -6 43 -13 83 -16 l73 -7 12 -49 c7 -28 11 -53 8 -58 -3 -4 -32 -26 -65 -48 -32 -23 -59 -43 -59 -46 0 -3 9 -23 20 -44 23 -44 28 -46 113 -26 l57 14 30 -36 c17 -20 30 -42 30 -49 0 -8 -20 -39 -44 -70 -42 -53 -44 -57 -30 -79 9 -12 27 -30 41 -39 24 -16 26 -15 86 24 l61 40 43 -31 c24 -17 43 -37 43 -44 0 -7 -9 -36 -20 -64 -26 -66 -25 -77 7 -93 62 -32 67 -31 109 28 21 30 44 55 50 55 6 0 31 -7 57 -16 l47 -16 0 -73 0 -74 38 -6 c20 -4 45 -9 55 -12 9 -2 17 -3 17 -1 0 2 11 35 24 73 l23 70 51 3 c47 3 52 1 65 -25 8 -15 21 -47 27 -70 12 -39 16 -43 44 -42 75 2 81 8 86 88 l5 73 49 20 c47 18 50 18 60 1 5 -10 26 -35 46 -57 l37 -40 46 27 c50 30 51 32 13 121 -9 21 -14 41 -11 45 2 4 22 20 45 36 l40 28 62 -38 62 -38 33 38 c18 21 33 41 33 45 0 4 -15 26 -32 50 -18 24 -37 49 -42 56 -7 8 -1 26 18 54 30 46 18 44 138 24 33 -6 38 -4 51 22 33 65 32 69 -33 110 -33 22 -60 44 -60 49 0 23 23 91 34 97 6 4 34 8 62 8 27 0 55 5 62 12 7 7 12 33 12 59 l0 48 -54 15 c-30 9 -59 16 -64 16 -14 0 -22 26 -22 74 0 42 0 42 63 69 l63 28 -9 54 -10 55 -79 -6 -78 -7 -21 49 -22 48 56 51 56 51 -16 31 c-8 17 -23 39 -33 48 -17 15 -22 14 -82 -13 l-64 -29 -39 35 -38 35 32 64 c17 35 31 69 31 77 0 7 -18 26 -40 41 l-41 28 -54 -53 -54 -53 -41 18 c-58 26 -60 31 -45 110 15 78 14 79 -55 101 l-35 11 -36 -66 -36 -66 -49 3 c-27 2 -50 5 -52 7 -2 2 -10 33 -17 69 -8 37 -17 71 -20 76 -3 6 -28 10 -55 10 -49 0 -49 0 -55 -37z m238 -279 c204 -52 386 -224 454 -429 24 -72 27 -95 27 -220 0 -134 -1 -144 -32 -225 -40 -104 -85 -173 -163 -251 -211 -207 -509 -250 -783 -112 -107 54 -231 181 -284 293 -22 47 -46 110 -53 140 -20 79 -17 250 5 337 50 200 253 411 446 463 120 33 267 34 383 4z"/>
<path d="M1068 1455 c-2 -3 -85 -34 -184 -69 -299 -107 -296 -105 -292 -128 2 -17 50 -39 250 -120 l246 -99 171 62 c94 34 171 64 171 68 0 3 -64 27 -142 53 -97 32 -152 46 -171 42 -60 -13 -111 34 -71 66 21 18 94 17 124 -2 14 -9 83 -35 153 -57 71 -23 146 -49 167 -57 36 -15 44 -14 97 3 49 17 58 23 58 43 0 22 -18 30 -270 112 -260 84 -296 94 -307 83z"/>
<path d="M1490 1170 c-11 -7 -15 -32 -16 -102 -2 -120 -9 -194 -28 -293 -11 -53 -13 -82 -6 -89 13 -13 118 -12 130 0 5 5 2 41 -6 84 -28 142 -36 205 -41 308 -2 56 -7 102 -11 102 -4 0 -14 -5 -22 -10z"/>
<path d="M812 922 l3 -167 56 -22 c80 -32 218 -46 329 -33 86 10 193 41 205 61 8 11 10 317 3 324 -3 3 -73 -20 -157 -50 -83 -30 -158 -55 -165 -55 -8 0 -63 21 -123 46 -59 25 -118 50 -131 55 l-22 9 2 -168z"/>
</g>
</svg>