<?xml version="1.0" encoding="utf-8"?>
<!DOCTYPE svg PUBLIC "-//W3C//DTD SVG 1.1//EN" "http://www.w3.org/Graphics/SVG/1.1/DTD/svg11.dtd">
<svg version="1.1" xmlns="http://www.w3.org/2000/svg" xmlns:xlink="http://www.w3.org/1999/xlink" x="0px" y="0px" viewBox="0 0 256 256" enable-background="new 0 0 256 256" xml:space="preserve">
<metadata> Svg Vector Icons : http://www.onlinewebfonts.com/icon </metadata>
<g><g><path fill="#000000" d="M128,246c-65.2,0-118-52.8-118-118C10,62.8,62.8,10,128,10c65.2,0,118,52.8,118,118C246,193.2,193.2,246,128,246z M128,18.9C67.7,18.9,18.9,67.7,18.9,128c0,60.3,48.8,109.1,109.1,109.1c60.3,0,109.1-48.8,109.1-109.1C237.1,67.7,188.3,18.9,128,18.9z M195.4,162.2c-2.5,1.2-5.4,2-8.7,2.6c-3.3,0.6-6.6,1-10.1,1.1c-2.8-1.9-5.9-3.4-9.1-4.5c-3.2-1.1-6.3-2-9.2-2.9c-2.9-0.8-5.3-1.8-7.4-2.9c-2.1-1.1-3.3-2.6-3.7-4.6c0.4-1.9,1.7-3.5,3.9-4.7c2.2-1.2,4.6-2.3,7.2-3.4c2.6-1.1,4.9-2.2,7-3.4c2.1-1.2,3.1-2.7,3.1-4.5c0-2.1-0.8-4-2.4-5.8c-1.6-1.8-3.3-3.8-5-6.1c1.6-3.5,3-7.7,4-12.5c1.1-4.8,1.6-10.5,1.6-17c0-1.4-0.1-2.8-0.2-4.2c-0.1-1.4-0.3-2.8-0.5-4.2c2.6-1.8,5-2.7,7.1-2.7c4.7,0,8.5,0.8,11.4,2.3c2.8,1.6,5,3.5,6.4,5.8c1.5,2.3,2.4,4.8,2.9,7.5c0.5,2.6,0.7,5.1,0.7,7.3c0,4.5-0.7,8.2-2.2,10.9c-1.5,2.8-3.1,5.2-4.8,7.2s-3.4,3.9-4.8,5.6c-1.5,1.7-2.2,3.7-2.2,6c0,1.1,0.6,2.1,1.7,3c1.2,0.9,2.6,1.8,4.3,2.6c1.7,0.8,3.6,1.6,5.7,2.3c2.1,0.7,4,1.6,5.7,2.4c1.7,0.8,3.2,1.8,4.3,2.9c1.2,1.1,1.7,2.3,1.7,3.7c0,2.2-0.7,4.2-2.3,5.9C199.9,159.6,197.9,161,195.4,162.2z M151.8,123.2c-1.4,2.9-2.9,5.5-4.6,7.8s-3.1,4.4-4.6,6.5c-1.4,2.1-2.6,4.2-3.6,6.3c-1,2.2-1.4,4.6-1.4,7.3c0,2.1,0.9,4,2.8,5.6c1.9,1.6,4.2,3.1,7,4.6c2.8,1.4,5.9,2.8,9.2,4.1s6.4,2.7,9.2,4.3c2.8,1.6,5.2,3.3,7,5.1c1.9,1.9,2.8,4,2.8,6.6c0,1.7-1.4,3.3-4.2,4.9s-6.6,3-11.2,4.3c-4.6,1.3-10,2.3-16,3.1c-6,0.7-12.3,1.1-18.6,1.1c-7.3,0-13.7-0.4-19.3-1.1c-5.6-0.7-10.3-1.8-14.1-3c-3.8-1.3-6.7-2.7-8.6-4.3c-2-1.6-3-3.2-3-4.8c0-2.5,0.9-4.7,2.8-6.6c1.9-1.9,4.2-3.5,7-5.1s5.9-2.9,9.2-4.1c3.3-1.3,6.3-2.6,9.2-4c2.8-1.4,5.2-2.9,7-4.6c1.9-1.7,2.8-3.6,2.8-5.9s-0.5-4.5-1.4-6.5c-1-2-2.2-4-3.6-6.1c-1.5-2-3.1-4.3-4.8-6.7s-3.3-5.1-4.8-8.1c-1.5-3-2.7-6.5-3.6-10.4c-1-3.9-1.4-8.4-1.4-13.6c0-11.1,2.1-20,6.3-26.6c4.2-6.6,10.7-9.9,19.5-9.9c7.4,0,13.2,1.1,17.4,3.3c4.2,2.2,7.4,5,9.6,8.5c2.2,3.5,3.5,7.3,4.1,11.4c0.6,4.2,0.8,8.3,0.8,12.3c0,5.4-0.5,10.1-1.4,14C154.4,116.9,153.2,120.3,151.8,123.2z M87.7,138.5c1.4,1,3.1,1.9,5.1,2.7c2,0.8,4.1,1.7,6.3,2.6c2.2,0.9,4.2,1.9,5.9,2.9c0.1,0.5,0.1,1.3,0.1,2.4c0,1.9-0.8,3.5-2.5,4.7c-1.7,1.2-3.8,2.4-6.3,3.5c-2.5,1.1-5.3,2.4-8.2,3.8c-2.9,1.4-5.6,3.3-8,5.7h-2.9c-4.1,0-7.8-0.4-10.8-1.3c-3.1-0.8-5.7-2-7.8-3.4c-2.1-1.4-3.7-3-4.8-4.7c-1.1-1.8-1.6-3.5-1.6-5.3c0-2.1,1.1-3.8,3.3-5.1c2.2-1.3,4.7-2.5,7.3-3.6c2.7-1.1,5.1-2.3,7.3-3.5c2.2-1.2,3.3-2.8,3.3-4.7s-0.6-3.7-1.8-5.3c-1.2-1.6-2.6-3.4-4-5.5c-1.5-2.1-2.8-4.5-4-7.2c-1.2-2.8-1.8-6.3-1.8-10.6c0-3.1,0.3-6.1,1-9c0.7-2.9,1.6-5.5,3-7.7c1.3-2.2,3-4,5-5.3c2-1.3,4.4-2,7.1-2c3.6,0,6.7,0.6,9.1,1.8c-0.6,3.6-0.9,7.4-0.9,11.3c0,6.3,0.5,11.7,1.6,16.1c1.1,4.4,2.4,8.2,4,11.4c-1.5,2-2.9,3.9-4.2,5.7c-1.3,1.8-2,3.9-2,6.3C85.6,136.5,86.3,137.6,87.7,138.5z"/></g></g>
</svg>