<?xml version="1.0" encoding="UTF-8" standalone="no"?>
<!-- Created with Inkscape (http://www.inkscape.org/) -->

<svg
   version="1.1"
   id="svg2"
   width="1140.104"
   height="661.29602"
   viewBox="0 0 1140.104 661.29602"
   sodipodi:docname="BESTMessina - logo vettoriale.ai"
   xmlns:inkscape="http://www.inkscape.org/namespaces/inkscape"
   xmlns:sodipodi="http://sodipodi.sourceforge.net/DTD/sodipodi-0.dtd"
   xmlns="http://www.w3.org/2000/svg"
   xmlns:svg="http://www.w3.org/2000/svg">
  <defs
     id="defs6">
    <clipPath
       clipPathUnits="userSpaceOnUse"
       id="clipPath16">
      <path
         d="M 0,495.972 H 855.078 V 0 H 0 Z"
         id="path14" />
    </clipPath>
    <clipPath
       clipPathUnits="userSpaceOnUse"
       id="clipPath44">
      <path
         d="M 0,495.972 H 855.078 V 0 H 0 Z"
         id="path42" />
    </clipPath>
  </defs>
  <sodipodi:namedview
     id="namedview4"
     pagecolor="#ffffff"
     bordercolor="#000000"
     borderopacity="0.25"
     inkscape:showpageshadow="2"
     inkscape:pageopacity="0.0"
     inkscape:pagecheckerboard="0"
     inkscape:deskcolor="#d1d1d1" />
  <g
     id="g8"
     inkscape:groupmode="layer"
     inkscape:label="BESTMessina - logo vettoriale"
     transform="matrix(1.3333333,0,0,-1.3333333,0,661.296)">
    <g
       id="g10">
      <g
         id="g12"
         clip-path="url(#clipPath16)">
        <g
           id="g18"
           transform="translate(473.334,229.043)">
          <path
             d="m 0,0 c 0,4.479 -0.68,8.172 -2.035,11.078 -1.356,2.906 -4.098,5.375 -8.223,7.402 -2.656,1.332 -5.553,2.186 -8.689,2.559 -3.137,0.373 -7.588,0.561 -13.354,0.561 h -19.074 v -44 h 13.648 c 7.348,0 13.141,0.318 17.379,0.959 4.239,0.64 7.969,2 11.192,4.08 3.164,2.08 5.482,4.439 6.951,7.08 C -0.736,-7.641 0,-4.215 0,0 m -6,53.934 c 0,2.867 -0.508,5.351 -1.523,7.451 -1.016,2.097 -2.653,3.76 -4.911,4.982 -2.711,1.434 -5.73,2.309 -9.058,2.629 -3.33,0.318 -7.93,0.479 -13.799,0.479 h -16.084 v -34.75 h 19.047 c 5.248,0 9.113,0.252 11.598,0.755 2.482,0.504 5.05,1.555 7.705,3.151 2.539,1.539 4.343,3.558 5.416,6.056 C -6.537,47.184 -6,50.266 -6,53.934 M 17.5,0.619 c 0,-5.914 -1.189,-11.135 -3.566,-15.662 -2.377,-4.529 -5.575,-8.258 -9.594,-11.187 -4.754,-3.518 -9.848,-6.008 -15.281,-7.473 -5.434,-1.465 -12.454,-2.197 -21.057,-2.197 H -68.25 V 82.975 h 33.512 c 8.992,0 15.738,-0.28 20.234,-0.838 4.496,-0.559 8.809,-1.873 12.938,-3.948 C 2.959,75.902 6.268,72.912 8.361,69.217 10.453,65.521 11.5,61.176 11.5,56.178 11.5,50.596 9.932,45.598 6.797,41.186 3.66,36.771 -0.676,33.318 -6.211,30.826 V 30.187 C 1.324,28.27 7.158,24.766 11.295,19.678 15.432,14.59 17.5,8.236 17.5,0.619"
             style="fill:#0071b9;fill-opacity:1;fill-rule:nonzero;stroke:none"
             id="path20" />
        </g>
        <g
           id="g22"
           transform="translate(507.5957,193.1426)">
          <path
             d="m 0,0 v 118.875 h 79.125 v -14 H 16.875 V 72.25 h 58 v -14 h -58 V 14 h 62.25 V 0 Z"
             style="fill:#0071b9;fill-opacity:1;fill-rule:nonzero;stroke:none"
             id="path24" />
        </g>
        <g
           id="g26"
           transform="translate(640.4463,191.0176)">
          <path
             d="m 0,0 c -9.168,0 -16.965,0.891 -23.389,2.668 -6.423,1.779 -12.465,3.971 -18.125,6.574 V 29 h 1.188 c 5.545,-4.887 11.826,-8.67 18.844,-11.352 7.017,-2.683 13.779,-4.023 20.287,-4.023 9.281,0 16.297,1.822 21.05,5.469 4.754,3.644 7.131,8.449 7.131,14.41 0,4.736 -1.246,8.596 -3.738,11.576 -2.492,2.981 -6.457,5.19 -11.894,6.627 -3.909,1.063 -7.477,1.941 -10.706,2.633 -3.228,0.691 -7.277,1.623 -12.148,2.795 -4.361,1.062 -8.27,2.42 -11.725,4.068 -3.455,1.649 -6.513,3.805 -9.173,6.465 -2.606,2.605 -4.631,5.678 -6.075,9.215 -1.445,3.537 -2.166,7.621 -2.166,12.25 0,9.629 3.994,17.701 11.987,24.217 7.99,6.515 18.191,9.775 30.603,9.775 7.084,0 13.785,-0.668 20.106,-2 6.318,-1.332 12.17,-3.225 17.554,-5.676 V 96.5 h -1.275 c -4.025,3.477 -9.184,6.514 -15.475,9.107 -6.293,2.594 -12.896,3.893 -19.812,3.893 -7.822,0 -14.143,-1.717 -18.961,-5.15 -4.818,-3.434 -7.227,-7.944 -7.227,-13.532 0,-5.058 1.416,-9.076 4.248,-12.056 2.832,-2.981 6.938,-5.164 12.319,-6.547 3.566,-0.906 7.927,-1.93 13.082,-3.074 5.154,-1.145 9.431,-2.194 12.83,-3.151 8.721,-2.5 15.092,-6.277 19.113,-11.332 4.022,-5.054 6.033,-11.277 6.033,-18.67 0,-4.629 -1.006,-9.205 -3.013,-13.726 C 39.463,17.74 36.646,13.91 33.025,10.771 28.949,7.314 24.35,4.654 19.229,2.793 14.107,0.932 7.697,0 0,0"
             style="fill:#0071b9;fill-opacity:1;fill-rule:nonzero;stroke:none"
             id="path28" />
        </g>
        <g
           id="g30"
           transform="translate(731.5889,193.1426)">
          <path
             d="m 0,0 v 104.875 h -42.5 v 14 H 59.375 v -14 h -42.5 V 0 Z"
             style="fill:#0071b9;fill-opacity:1;fill-rule:nonzero;stroke:none"
             id="path32" />
        </g>
      </g>
    </g>
    <text
       xml:space="preserve"
       transform="matrix(1,0,0,-1,611.6768,145.6094)"
       style="font-variant:normal;font-weight:normal;font-stretch:normal;font-size:44px;font-family:Tahoma;-inkscape-font-specification:Tahoma;writing-mode:lr-tb;fill:#0071b9;fill-opacity:1;fill-rule:nonzero;stroke:none"
       id="text36"><tspan
         x="0 33.924 58.608002 82.605598 107.1136 123.5256 152.8736"
         y="0"
         sodipodi:role="line"
         id="tspan34">MESSINA</tspan></text>
    <g
       id="g38">
      <g
         id="g40"
         clip-path="url(#clipPath44)">
        <g
           id="g46"
           transform="translate(340.6499,192.7852)">
          <path
             d="m 0,0 -27.848,16.052 h -72.734 L -128.43,0 C -101.785,-46.29 -22.109,-122.115 64.22,-128.67 34.134,-111.81 -13.738,-51.271 0,0"
             style="fill:#0071b9;fill-opacity:1;fill-rule:nonzero;stroke:none"
             id="path48" />
        </g>
        <g
           id="g50"
           transform="translate(360.3247,431.8579)">
          <path
             d="m 0,0 c 0.437,-34.467 -28.039,-106.189 -79.322,-119.933 l 0.019,-32.15 36.37,-62.992 27.822,-16.095 C 11.662,-184.951 37.483,-78.024 0,0 m -79.303,-152.083 v 0 l -0.544,0.936 z"
             style="fill:#ffa615;fill-opacity:1;fill-rule:nonzero;stroke:none"
             id="path52" />
        </g>
        <g
           id="g54"
           transform="translate(64.1143,209.3985)">
          <path
             d="m 0,0 c 29.638,17.639 106.009,28.828 143.541,-8.711 l 27.83,16.096 -0.551,-0.955 36.914,63.934 0.025,32.15 C 154.346,102.596 48.845,71.495 0,0"
             style="fill:#75bf1e;fill-opacity:1;fill-rule:nonzero;stroke:none"
             id="path56" />
        </g>
        <g
           id="g58"
           transform="translate(259.3882,235.1289)">
          <path
             d="m 0,0 c 0,9.413 7.624,17.051 17.043,17.051 9.42,0 17.056,-7.638 17.056,-17.051 0,-9.419 -7.636,-17.05 -17.056,-17.05 C 7.624,-17.05 0,-9.419 0,0"
             style="fill:#0071b9;fill-opacity:1;fill-rule:nonzero;stroke:none"
             id="path60" />
        </g>
      </g>
    </g>
  </g>
</svg>
